<svg fill="none" height="500" viewBox="0 0 500 500" width="500" xmlns="http://www.w3.org/2000/svg" xmlns:xlink="http://www.w3.org/1999/xlink"><linearGradient id="a"><stop offset="0" stop-color="#d81925"/><stop offset="1" stop-color="#99121b"/></linearGradient><linearGradient id="b" gradientUnits="userSpaceOnUse" x1="250.399" x2="250.399" xlink:href="#a" y1="446.144" y2="173"/><linearGradient id="c" gradientUnits="userSpaceOnUse" x1="251.872" x2="251.872" xlink:href="#a" y1="140" y2="413.144"/><ellipse cx="250.19" cy="424.777" fill="#f2c47f" rx="177" ry="10" transform="matrix(.99970767 -.02417778 .02417778 .99970767 -10.19703 6.173213)"/><path d="m367.289 289.427c-5.075-11.671-11.252-21.505-17.105-27.971-2.931-3.237-5.742-5.587-8.253-6.917-2.523-1.336-4.589-1.569-6.175-.879s-2.825 2.359-3.569 5.115c-.74 2.745-.938 6.403-.569 10.754.737 8.691 3.716 19.914 8.791 31.586s11.252 21.505 17.105 27.971c2.931 3.237 5.742 5.587 8.254 6.917 2.522 1.337 4.588 1.569 6.174.879 1.586-.689 2.825-2.359 3.569-5.115.74-2.744.938-6.403.569-10.754-.737-8.691-3.716-19.914-8.791-31.586z" fill="#d81925" stroke="#000" stroke-width="2"/><path d="m365.67 326.596c-4.257-10.722-5.108-5.19-5.888-5.726-3.211-2.203-6.698-13.704-4.635-3.759-2.355 3.431 1.54 8.228 2.853 9.431 12 11 11.134 9.178 7.67.054z" fill="#8d080f"/><g stroke="#000"><path d="m305.999 326c-18.5-81.5-46.999-29-67.499 34-2-58.5-102.907-132.875-64-164 37.5-30 124.5-32.5 160 0 33.152 30.351-31.001 59-28.501 130z" fill="url(#b)" stroke-width="2"/><path d="m203.13 403.923c9.619-1.006 18.435-.597 24.901.858 3.238.729 5.843 1.71 7.663 2.874 1.827 1.17 2.753 2.45 2.89 3.757s-.505 2.751-2.05 4.273c-1.539 1.516-3.885 3.015-6.902 4.398-6.025 2.762-14.565 4.987-24.184 5.994-9.62 1.006-18.435.597-24.902-.858-3.237-.729-5.843-1.71-7.662-2.874-1.827-1.17-2.753-2.45-2.89-3.757s.504-2.751 2.05-4.273c1.539-1.516 3.885-3.015 6.901-4.398 6.026-2.762 14.565-4.987 24.185-5.994z" fill="#7c151b" stroke-width="1.51989"/><path d="m170.567 420.201c4.179-2.28 13.071-6.839 15.199-6.839" stroke-width="1.51989"/><path d="m185.386 425.521c1.773-2.533 5.623-7.827 6.839-8.739" stroke-width="1.51989"/><path d="m295.448 401.923c-9.62-1.006-18.435-.597-24.902.858-3.237.729-5.843 1.71-7.662 2.874-1.827 1.17-2.753 2.45-2.89 3.757s.504 2.751 2.05 4.273c1.539 1.516 3.885 3.015 6.901 4.398 6.026 2.762 14.565 4.987 24.185 5.994 9.619 1.006 18.435.597 24.901-.858 3.238-.729 5.843-1.71 7.663-2.874 1.827-1.17 2.753-2.45 2.89-3.757s-.505-2.751-2.05-4.273c-1.539-1.516-3.885-3.015-6.902-4.398-6.025-2.762-14.565-4.987-24.184-5.994z" fill="#7c151b" stroke-width="1.51989"/><path d="m328.011 418.201c-4.18-2.28-13.071-6.839-15.199-6.839" stroke-width="1.51989"/><path d="m313.192 423.521c-1.773-2.533-5.624-7.827-6.839-8.739" stroke-width="1.51989"/><path d="m164.66 303.225c5.219-11.608 8.337-22.794 9.18-31.475.423-4.346.27-8.007-.437-10.76-.709-2.765-1.927-4.45-3.505-5.159-1.577-.709-3.646-.502-6.185.803-2.528 1.299-5.368 3.614-8.338 6.815-5.933 6.393-12.23 16.15-17.448 27.758-5.219 11.608-8.336 22.794-9.18 31.476-.423 4.346-.269 8.006.437 10.759.709 2.766 1.928 4.45 3.505 5.159s3.646.503 6.185-.802c2.528-1.3 5.368-3.615 8.338-6.815 5.933-6.394 12.23-16.15 17.448-27.759z" fill="#d81925" stroke-width="2"/><path d="m343.5 140c-18.5 81.5-163 73.5-183.5 10.5-2 58.5 1.563 168.006 13 216.5 12.5 53 134 69.5 161.5 0 16.537-41.794 6.5-156 9-227z" fill="url(#c)" stroke-width="2"/><path d="m186 300.5c22.5 9.333 81.7 22.4 138.5 0-58.4 90.4-116.667 37.667-138.5 0z" fill="#ffb1b1" stroke-width="2"/><path d="m274.5 254.505c-.051 11.058-.034 21.211 2.873 28.521 1.436 3.613 3.56 6.473 6.699 8.4 3.148 1.932 7.417 2.986 13.248 2.796 5.4-.177 9.412-1.404 12.419-3.41 3-2.001 5.08-4.831 6.525-8.359 2.92-7.127 3.185-16.917 3.236-27.957.049-10.805-3.024-20.336-7.342-27.142-4.358-6.871-9.817-10.733-14.441-10.733-5.121 0-10.886 3.9-15.445 10.751-4.527 6.803-7.723 16.331-7.772 27.133z" fill="#fff" stroke-width="2"/></g><path d="m279.128 271.402c-.071 15.409-3.128 21.598 18.5 23.598 18.245-2 18.174-8.02 18.245-23.43-.873-15.57-8.098-27.939-18.245-27.986-10.147-.046-18.43 12.408-18.5 27.818z" fill="#161212"/><path d="m180.186 250.494c-.051 11.059-.034 21.211 2.873 28.522 1.436 3.612 3.56 6.473 6.699 8.399 3.148 1.933 7.417 2.986 13.248 2.796 5.4-.177 9.412-1.404 12.419-3.409 3.001-2.002 5.08-4.832 6.525-8.359 2.92-7.128 3.185-16.917 3.236-27.958.049-10.804-3.024-20.336-7.342-27.142-4.358-6.87-9.816-10.733-14.441-10.733-5.121 0-10.886 3.9-15.445 10.751-4.527 6.804-7.723 16.331-7.772 27.133z" fill="#fff" stroke="#000" stroke-width="2"/><path d="m184.814 267.391c-.071 15.41-3.128 21.599 18.5 23.599 18.245-2 18.174-8.021 18.245-23.431-.873-15.569-8.098-27.939-18.245-27.985-10.147-.047-18.43 12.407-18.5 27.817z" fill="#161212"/><path d="m239.5 281.5c-1.667 1.5-4.6 5.1-3 7.5 2 3 26 3.5 26.5 0 .4-2.8-1.167-6.167-2-7.5" stroke="#000" stroke-width="2"/><path d="m338.752 195.875c0 34.625-1.848 61.867-2.752 62.125-3.717 1.062-5-12-8-49-5.914-20.711-1.876-22.283-.748-24.625 11.5-23.875 11.248-18.375 11.5 11.5z" fill="#8d080f"/><path d="m266.2 270.659c0-1.744-7.208-3.158-16.1-3.158s-16.1 1.414-16.1 3.158 7.208 1.417 16.1 1.417 16.1.327 16.1-1.417z" fill="#9c0d16"/><path d="m257 258.159c0-1.745-3.604-3.159-8.05-3.159s-8.05 1.414-8.05 3.159c0 1.744 3.604 1.417 8.05 1.417s8.05.327 8.05-1.417z" fill="#9c0d16"/><path d="m273.2 394.942c0 1.744-7.208 3.158-16.1 3.158s-16.1-1.414-16.1-3.158c0-1.745 7.208-1.418 16.1-1.418s16.1-.327 16.1 1.418z" fill="#890b13"/><path d="m250.017 334-1.017-20.5-16.5-1.5-14.491-2c-.5 10 21.341 25.833 32.008 24z" fill="#fff" stroke="#000" stroke-width="2"/><path d="m254.409 334.659 1.247-20.759 23.844-1.4c-1.297 16.127-18.908 22.061-25.091 22.159z" fill="#fff" stroke="#000" stroke-width="2"/></svg>